<svg width="40" height="40" viewBox="0 0 40 40" fill="none" xmlns="http://www.w3.org/2000/svg">
<mask id="mask0" mask-type="alpha" maskUnits="userSpaceOnUse" x="0" y="1" width="40" height="39">
<path d="M23.9952 9.03844V1.04004H0V9.03844H7.9984V31.04H15.9968V9.03844H23.9952Z" fill="#EF3E3A"/>
<path d="M28.9992 11.04C22.9223 11.04 17.9984 15.964 17.9984 22.0408V39.0384H25.9968V32.6253C26.9496 32.8975 27.9584 33.0416 28.9992 33.0416C35.0761 33.0416 40 28.1177 40 22.0408C40 15.964 35.0681 11.04 28.9992 11.04ZM28.9992 25.0352C27.3419 25.0352 25.9968 23.6902 25.9968 22.0328C25.9968 20.3755 27.3419 19.0304 28.9992 19.0304C30.6565 19.0304 32.0016 20.3755 32.0016 22.0328C31.9936 23.6982 30.6565 25.0352 28.9992 25.0352Z" fill="#EF3E3A"/>
</mask>
<g mask="url(#mask0)">
<rect width="40" height="40" fill="#EF3E3A"/>
</g>
</svg>
